{
    "asset" : {
        "generator" : "Khronos glTF Blender I/O v1.1.46",
        "version" : "2.0"
    },
    "scene" : 0,
    "scenes" : [
        {
            "name" : "Scene",
            "nodes" : [
                0,
                1
            ]
        }
    ],
    "nodes" : [
        {
            "name" : "Light",
            "rotation" : [
                0.16907575726509094,
                0.7558803558349609,
                -0.27217137813568115,
                0.570947527885437
            ],
            "translation" : [
                4.076245307922363,
                5.903861999511719,
                -1.0054539442062378
            ]
        },
        {
            "mesh" : 0,
            "name" : "Body001 Round Peg (Meshed)"
        }
    ],
    "meshes" : [
        {
            "name" : "Body001 Round Peg (Meshed)",
            "primitives" : [
                {
                    "attributes" : {
                        "POSITION" : 0,
                        "NORMAL" : 1
                    },
                    "indices" : 2
                }
            ]
        }
    ],
    "accessors" : [
        {
            "bufferView" : 0,
            "componentType" : 5126,
            "count" : 4759,
            "max" : [
                82,
                85.4000015258789,
                -130
            ],
            "min" : [
                42,
                0,
                -170
            ],
            "type" : "VEC3"
        },
        {
            "bufferView" : 1,
            "componentType" : 5126,
            "count" : 4759,
            "type" : "VEC3"
        },
        {
            "bufferView" : 2,
            "componentType" : 5123,
            "count" : 8628,
            "type" : "SCALAR"
        }
    ],
    "bufferViews" : [
        {
            "buffer" : 0,
            "byteLength" : 57108,
            "byteOffset" : 0
        },
        {
            "buffer" : 0,
            "byteLength" : 57108,
            "byteOffset" : 57108
        },
        {
            "buffer" : 0,
            "byteLength" : 17256,
            "byteOffset" : 114216
        }
    ],
    "buffers" : [
        {
            "byteLength" : 131472,
            "uri" : "data:application/octet-stream;base64,"
        }
    ]
}
